<svg xmlns="http://www.w3.org/2000/svg" version="1.1" xmlns:xlink="http://www.w3.org/1999/xlink" xmlns:svgjs="http://svgjs.dev/svgjs" width="1920" height="1080" preserveAspectRatio="none" viewBox="0 0 1920 1080"><g mask="url(&quot;#SvgjsMask1055&quot;)" fill="none"><rect width="1920" height="1080" x="0" y="0" fill="rgba(26, 25, 32, 1)"></rect><path d="M0,378.018C79.639,363.22,163.961,403.222,237.958,370.27C317.079,335.036,383.936,270.548,419.088,191.391C454.08,112.592,434.875,24.271,429.829,-61.8C424.3,-156.111,441.408,-258.303,388.149,-336.333C333.136,-416.932,236.627,-459.779,141.977,-483.53C49.618,-506.706,-49.15,-503.787,-137.485,-468.233C-221.446,-434.439,-277.743,-360.411,-336.001,-291.147C-393.431,-222.868,-463.123,-156.705,-473.996,-68.15C-484.803,19.866,-420.729,95.358,-393.835,179.858C-362.38,278.687,-395.143,424.077,-302.496,470.693C-206.343,519.073,-105.827,397.682,0,378.018" fill="#16151b"></path><path d="M1920 1898.788C2085.346 1927.1509999999998 2262.119 1921.722 2409.83 1842.19 2562.635 1759.915 2671.188 1613.8429999999998 2742.806 1455.763 2814.2870000000003 1297.987 2841.571 1122.454 2813.331 951.558 2785.443 782.79 2725.3450000000003 601.812 2585.433 503.399 2450.77 408.679 2266.116 482.451 2104.178 452.74800000000005 1964.926 427.206 1844.754 341.581 1703.179 341.576 1526.555 341.57000000000005 1304.079 312.961 1196.075 452.71500000000003 1086.726 594.2090000000001 1213.212 799.287 1211.2649999999999 978.099 1209.643 1127.124 1125.1599999999999 1279.161 1185.594 1415.392 1246.161 1551.922 1402.684 1608.71 1527.444 1690.829 1653.69 1773.926 1771.036 1873.2350000000001 1920 1898.788" fill="#1e1d25"></path></g><defs><mask id="SvgjsMask1055"><rect width="1920" height="1080" fill="#ffffff"></rect></mask></defs></svg>